<svg fill="#000000" xmlns="http://www.w3.org/2000/svg"  viewBox="0 0 48 48" width="24px" height="24px"><path fill="none" stroke="#000000" stroke-linecap="round" stroke-linejoin="round" stroke-miterlimit="10" stroke-width="3" d="M17.536,21.506c1.849-2.91,3.869-5.757,5.731-8.66c0.185-0.287,0.306-0.643,0.432-1.09c0,0,1.609-5.662,1.646-5.766	c0.46-1.283,1.228-1.692,2.508-1.373c0.86,0.216,1.592,0.709,2.177,1.467c0.823,1.067,1.122,2.272,1.291,3.203	c0.323,1.792,0.21,3.661-0.356,5.882C30.589,16.637,29.5,20.5,29.5,20.5h5.936c1.442,0.003,2.762,0.561,3.716,1.569	c0.937,0.991,1.412,2.308,1.337,3.709c-0.034,0.631-0.19,1.21-0.329,1.722c0,0-1.727,6.756-2.565,9.995	c-0.929,3.587-4.102,6.018-7.71,6.018c-0.255,0-0.513-0.012-0.772-0.037c-0.504-0.048-6.644-1.358-11.419-2.393"/><path fill="none" stroke="#000000" stroke-linecap="round" stroke-linejoin="round" stroke-miterlimit="10" stroke-width="3" d="M14.5,42.5h-4c-1.657,0-3-1.343-3-3v-16c0-1.657,1.343-3,3-3h7v19C17.5,41.157,16.157,42.5,14.5,42.5z"/></svg>